<svg id="visual" viewBox="0 0 900 600" width="900" height="600" xmlns="http://www.w3.org/2000/svg" xmlns:xlink="http://www.w3.org/1999/xlink" version="1.1"><rect x="0" y="0" width="900" height="600" fill="#ffffff"></rect><path d="M0 509L15 505C30 501 60 493 90 494.8C120 496.7 150 508.3 180 514C210 519.7 240 519.3 270 514.2C300 509 330 499 360 500.2C390 501.3 420 513.7 450 521.5C480 529.3 510 532.7 540 533.8C570 535 600 534 630 527.2C660 520.3 690 507.7 720 500.8C750 494 780 493 810 493.7C840 494.3 870 496.7 885 497.8L900 499L900 601L885 601C870 601 840 601 810 601C780 601 750 601 720 601C690 601 660 601 630 601C600 601 570 601 540 601C510 601 480 601 450 601C420 601 390 601 360 601C330 601 300 601 270 601C240 601 210 601 180 601C150 601 120 601 90 601C60 601 30 601 15 601L0 601Z" fill="#175dc6" stroke-linecap="round" stroke-linejoin="miter"></path></svg>